<?xml version="1.0" encoding="utf-8"?>
<!-- Generator: Adobe Illustrator 28.2.0, SVG Export Plug-In . SVG Version: 6.00 Build 0)  -->
<svg version="1.1" id="Layer_1" xmlns="http://www.w3.org/2000/svg" xmlns:xlink="http://www.w3.org/1999/xlink" x="0px" y="0px"
	 viewBox="0 0 1000 200" style="enable-background:new 0 0 1000 200;" xml:space="preserve">
<style type="text/css">
	.st0{fill:#EF4444;}
	.st1{fill:#FFFFFF;}
	.st2{fill:none;}
</style>
<g>
	<g>
		<path class="st0" d="M16.4,0H38v154.1H16.4V0z M31,133.5h34.9c11.4,0,20.2-2.9,26.4-8.8c6.3-5.9,9.4-14.2,9.4-25V54.4
			c0-10.7-3.1-19.1-9.4-25s-15.1-8.8-26.4-8.8H31V0h34.2c12.4,0,22.9,2.2,31.7,6.5s15.4,10.6,20,18.9s6.9,18.2,6.9,29.9V99
			c0,11.7-2.3,21.6-6.9,29.9s-11.3,14.6-20.1,18.9c-8.8,4.3-19.4,6.5-31.7,6.5H31V133.5z"/>
		<path class="st1" d="M161.5,147.3c-6.7-5.6-10.1-14.1-10.1-25.6c0-10.9,3.1-19,9.2-24.5c6.1-5.4,15.4-8.2,27.9-8.2h31.3l1.5,17.4
			h-32.6c-5.7,0-9.9,1.3-12.7,3.8s-4.2,6.3-4.2,11.5c0,5.6,1.9,9.7,5.6,12.4c3.7,2.7,9.3,4,16.9,4c8.3,0,14.4-0.9,18.5-2.6
			c4.1-1.8,6.1-4.5,6.1-8.3l2.2,15.5c-1.9,3-4.3,5.4-7,7.3c-2.8,1.9-6,3.3-9.7,4.3s-7.8,1.4-12.4,1.4
			C178.3,155.7,168.2,152.9,161.5,147.3z M218.8,84.4c0-7.2-1.9-12.8-5.8-16.8c-3.9-4-9.3-6-16.4-6c-4.4,0-8.7,0.7-12.9,2
			c-4.2,1.3-7.9,3.2-11.2,5.6l-15.8-10.8c4.2-5,9.7-8.9,16.5-11.7c6.8-2.8,14.4-4.2,22.7-4.2c9.1,0,16.9,1.6,23.4,4.8
			s11.4,7.9,14.8,14c3.4,6.1,5.1,13.5,5.1,22.1v70.7h-20.6V84.4H218.8z"/>
		<path class="st1" d="M272.2,0h21.6v21.6h-21.6V0z M272.2,44.1h21.6v110h-21.6V44.1z"/>
		<path class="st1" d="M348.3,125.7c0,2.7,0.6,4.8,1.7,6.2c1.2,1.4,2.8,2.2,4.9,2.2h10.2v20.6h-12.7c-8.2,0-14.5-2.5-19-7.6
			s-6.7-12.3-6.7-21.5V0h21.6V125.7z"/>
		<path class="st1" d="M377.9,44.1h22l33.8,95.6l-12,23.4L377.9,44.1z M475.3,44.1l-46.8,135.8c-1.7,5-3.9,9-6.7,11.9
			c-2.8,2.9-6.1,5-10.2,6.3c-4,1.3-9,1.9-14.8,1.9h-4.3v-20.8h4.3c4,0,7.2-0.8,9.6-2.4c2.4-1.6,4.4-4.4,6.2-8.4l40.7-124.3
			C453.3,44.1,475.3,44.1,475.3,44.1z"/>
		<path class="st0" d="M470,0h108.7v20.6H470V0z M513.6,12.6h21.6v141.5h-21.6V12.6z"/>
		<path class="st1" d="M585.1,44.1h21.6v110h-21.6V44.1z M638.4,64.9c-2.9-1.2-6.3-1.8-10.1-1.8c-6.9,0-12.2,1.9-16,5.7
			s-5.7,9-5.7,15.7l-2.2-21.2c3.4-6.6,7.8-11.7,13.1-15.3c5.4-3.6,11.3-5.5,17.8-5.5c5,0,9.6,0.7,13.6,2.2c4.1,1.4,7.6,3.6,10.7,6.4
			l-14.1,19.1C643.7,67.8,641.3,66.1,638.4,64.9z"/>
		<path class="st2" d="M682.5,147.3c-6.7-5.6-10.1-14.1-10.1-25.6c0-10.9,3.1-19,9.2-24.5c6.1-5.4,15.4-8.2,27.9-8.2h31.3l1.5,17.4
			h-32.6c-5.7,0-9.9,1.3-12.7,3.8s-4.2,6.3-4.2,11.5c0,5.6,1.9,9.7,5.6,12.4c3.7,2.7,9.3,4,16.9,4c8.3,0,14.4-0.9,18.5-2.6
			c4.1-1.8,6.1-4.5,6.1-8.3l2.2,15.5c-1.9,3-4.3,5.4-7,7.3c-2.8,1.9-6,3.3-9.7,4.3s-7.8,1.4-12.4,1.4
			C699.4,155.7,689.2,152.9,682.5,147.3z M739.9,84.4c0-7.2-1.9-12.8-5.8-16.8c-3.9-4-9.3-6-16.4-6c-4.4,0-8.7,0.7-12.9,2
			c-4.2,1.3-7.9,3.2-11.2,5.6l-15.8-10.8c4.2-5,9.7-8.9,16.5-11.7c6.8-2.8,14.4-4.2,22.7-4.2c9.1,0,16.9,1.6,23.4,4.8
			s11.4,7.9,14.8,14c3.4,6.1,5.1,13.5,5.1,22.1v70.7h-20.6V84.4H739.9z"/>
		<path class="st1" d="M812,150.1c-7.1-3.7-12.5-9.2-16.3-16.3c-3.7-7.1-5.6-15.8-5.6-25.9V89.8c0-10,1.9-18.5,5.6-25.5
			c3.7-7.1,9.2-12.5,16.3-16.2s15.7-5.6,25.7-5.6c5.7,0,11.1,0.7,16.2,2.1c5.1,1.4,9.6,3.4,13.6,6s7.4,5.8,10.1,9.5l-15.6,14
			c-3.1-3.5-6.7-6.3-10.9-8.2c-4.2-1.9-8.5-2.9-13-2.9c-8.3,0-14.8,2.3-19.4,7c-4.6,4.7-6.9,11.2-6.9,19.7v18.1
			c0,8.7,2.3,15.4,6.8,20.1c4.6,4.7,11,7.1,19.4,7.1c4.6,0,9-1,13.1-3.1c4.2-2,7.8-4.9,10.8-8.7l15.6,15.1
			c-2.8,3.7-6.1,6.8-10.2,9.4c-4,2.6-8.6,4.5-13.6,5.9c-5.1,1.3-10.4,2-16.1,2C827.7,155.7,819.1,153.8,812,150.1z"/>
		<path class="st1" d="M901.4,0H923v154.1h-21.6V0z M910.7,112.3L967.3,44h25.4l-83.4,94L910.7,112.3z M936.3,90.6l13.9-14.4
			l48,77.9h-23.5L936.3,90.6z"/>
	</g>
	<g>
		<g>
			<g>
				<g>
					<path class="st0" d="M91.5,95.9H68.3c-1.6,0-2.9,1.3-2.9,2.9s1.3,2.9,2.9,2.9l0,0h23.3c1.6,0,2.9-1.3,2.9-2.9
						S93.1,95.9,91.5,95.9z"/>
					<path class="st0" d="M58.2,90.6c-1.3-0.9-3.1-0.5-4,0.8L49.8,98l-3.5-1.8c-1.4-0.7-3.2-0.1-3.9,1.3s-0.1,3.2,1.3,3.9l0,0
						l5.8,2.9c1.3,0.7,2.9,0.2,3.7-1l5.8-8.7C59.9,93.3,59.6,91.5,58.2,90.6L58.2,90.6z"/>
				</g>
				<g>
					<path class="st0" d="M91.5,75.6H68.3c-1.6,0-2.9,1.3-2.9,2.9s1.3,2.9,2.9,2.9l0,0h23.3c1.6,0,2.9-1.3,2.9-2.9
						S93.1,75.6,91.5,75.6z"/>
					<path class="st0" d="M58.2,70.3c-1.3-0.9-3.1-0.5-4,0.8l-4.4,6.6l-3.5-1.8c-1.4-0.7-3.2-0.1-3.9,1.3s-0.1,3.2,1.3,3.9l5.8,2.9
						c1.3,0.7,2.9,0.2,3.7-1l5.8-8.7C59.9,73,59.6,71.2,58.2,70.3L58.2,70.3z"/>
				</g>
				<g>
					<path class="st0" d="M91.5,55.2H68.3c-1.6,0-2.9,1.3-2.9,2.9s1.3,2.9,2.9,2.9l0,0h23.3c1.6,0,2.9-1.3,2.9-2.9
						S93.1,55.2,91.5,55.2z"/>
					<path class="st0" d="M58.2,49.9c-1.3-0.9-3.1-0.5-4,0.8l-4.4,6.6l-3.5-1.8c-1.4-0.7-3.2-0.1-3.9,1.3c-0.7,1.4-0.1,3.2,1.3,3.9
						l5.8,2.9c1.3,0.7,2.9,0.2,3.7-1l5.8-8.7C59.9,52.6,59.6,50.8,58.2,49.9L58.2,49.9z"/>
				</g>
			</g>
			<path class="st0" d="M29,51.8H18.1c-4.9,0-9,4-9,9v6c-4.2,1.5-7.3,5.5-7.3,10.3c0,4.7,3,8.8,7.3,10.3v6c0,4.9,4,9,9,9H29
				c4.9,0,9-4,9-9V60.8C38,55.8,34,51.8,29,51.8z M12.7,73.4c2,0,3.6,1.6,3.6,3.6s-1.6,3.6-3.6,3.6S9.1,79,9.1,77
				C9.1,75.1,10.7,73.4,12.7,73.4z M30.7,93.4c0,0.9-0.8,1.7-1.7,1.7H18.1c-0.9,0-1.7-0.8-1.7-1.7v-6.1c4.2-1.5,7.2-5.5,7.2-10.2
				s-3-8.8-7.2-10.3v-6c0-0.9,0.8-1.7,1.7-1.7H29c0.9,0,1.7,0.8,1.7,1.7V93.4z"/>
		</g>
	</g>
	<path class="st1" d="M796.6,169.3l-3.6-3.6l0,0l-0.6-0.6l-0.4-0.4l0,0l-3.1-3.1L758,131.2c6.6-9.2,10.5-20.4,10.5-32.6
		c0-31-25.1-56.1-56.1-56.1s-56.1,25.1-56.1,56.1s25.1,56.1,56.1,56.1c11.5,0,22.2-3.5,31.1-9.4l31.2,30.7l3.5,3.5l0.4,0.3l3.8,3.8
		c2.4,2.5,7.7,1.2,11.6-2.8C797.8,177,799,171.8,796.6,169.3z M713,138.1c-21.8,0-39.5-17.7-39.5-39.5s17.7-39.5,39.5-39.5
		s39.5,17.7,39.5,39.5S734.8,138.1,713,138.1z"/>
</g>
</svg>
