<svg xmlns="http://www.w3.org/2000/svg" id="a" viewBox="0 0 258.3 154.3"><defs><style>.b{fill:#ef4444}</style></defs><path d="M149.6 0h108.7v20.6H149.6V0Zm43.6 12.6h21.6v141.5h-21.6V12.6ZM14.6 0h21.6v154.1H14.6V0Zm14.6 133.5h34.9c11.4 0 20.2-2.9 26.4-8.8 6.3-5.9 9.4-14.2 9.4-25V54.4c0-10.7-3.1-19.1-9.4-25-6.3-5.9-15.1-8.8-26.4-8.8H29.2V0h34.2c12.4 0 22.9 2.2 31.7 6.5s15.4 10.6 20 18.9c4.6 8.3 6.9 18.2 6.9 29.9V99c0 11.7-2.3 21.6-6.9 29.9-4.6 8.3-11.3 14.6-20.1 18.9-8.8 4.3-19.4 6.5-31.7 6.5H29.2v-20.8Z" class="b"/><path d="M89.7 95.9H66.5c-1.6 0-2.9 1.3-2.9 2.9s1.3 2.9 2.9 2.9h23.3c1.6 0 2.9-1.3 2.9-2.9s-1.4-2.9-3-2.9ZM56.4 90.6c-1.3-.9-3.1-.5-4 .8L48 98l-3.5-1.8c-1.4-.7-3.2-.1-3.9 1.3s-.1 3.2 1.3 3.9l5.8 2.9c1.3.7 2.9.2 3.7-1l5.8-8.7c.9-1.3.6-3.1-.8-4ZM89.7 75.6H66.5c-1.6 0-2.9 1.3-2.9 2.9s1.3 2.9 2.9 2.9h23.3c1.6 0 2.9-1.3 2.9-2.9s-1.4-2.9-3-2.9ZM56.4 70.3c-1.3-.9-3.1-.5-4 .8L48 77.7l-3.5-1.8c-1.4-.7-3.2-.1-3.9 1.3s-.1 3.2 1.3 3.9l5.8 2.9c1.3.7 2.9.2 3.7-1l5.8-8.7c.9-1.3.6-3.1-.8-4ZM89.7 55.2H66.5c-1.6 0-2.9 1.3-2.9 2.9s1.3 2.9 2.9 2.9h23.3c1.6 0 2.9-1.3 2.9-2.9s-1.4-2.9-3-2.9ZM56.4 49.9c-1.3-.9-3.1-.5-4 .8L48 57.3l-3.5-1.8c-1.4-.7-3.2-.1-3.9 1.3-.7 1.4-.1 3.2 1.3 3.9l5.8 2.9c1.3.7 2.9.2 3.7-1l5.8-8.7c.9-1.3.6-3.1-.8-4ZM27.2 51.8H16.3c-4.9 0-9 4-9 9v6C3.1 68.3 0 72.3 0 77.1s3 8.8 7.3 10.3v6c0 4.9 4 9 9 9h10.9c4.9 0 9-4 9-9V60.8c0-5-4-9-9-9ZM10.9 73.4c2 0 3.6 1.6 3.6 3.6s-1.6 3.6-3.6 3.6S7.3 79 7.3 77c0-1.9 1.6-3.6 3.6-3.6Zm18 20c0 .9-.8 1.7-1.7 1.7H16.3c-.9 0-1.7-.8-1.7-1.7v-6.1c4.2-1.5 7.2-5.5 7.2-10.2s-3-8.8-7.2-10.3v-6c0-.9.8-1.7 1.7-1.7h10.9c.9 0 1.7.8 1.7 1.7v32.6Z" class="b"/></svg>